<svg width="290" height="70" viewBox="0 0 290 70" fill="none" xmlns="http://www.w3.org/2000/svg">
<circle cx="257" cy="35" r="32.5" stroke="black" stroke-opacity="0.5"/>
<path d="M251 34.75H262.5" stroke="black" stroke-opacity="0.5"/>
<path d="M256.75 29L256.75 40.5" stroke="black" stroke-opacity="0.5"/>
<g clip-path="url(#clip0_1508_2)">
<circle cx="183" cy="35" r="33" transform="rotate(-180 183 35)" fill="#14104E"/>
</g>
<g clip-path="url(#clip1_1508_2)">
<circle cx="183" cy="35" r="33" fill="#FF3D00"/>
</g>
<g clip-path="url(#clip2_1508_2)">
<circle cx="109" cy="35" r="33" transform="rotate(-180 109 35)" fill="#0F4822"/>
</g>
<g clip-path="url(#clip3_1508_2)">
<circle cx="109" cy="35" r="33" fill="#FFD747"/>
</g>
<circle cx="35" cy="35" r="34.5" stroke="black"/>
<g clip-path="url(#clip4_1508_2)">
<circle cx="35" cy="35" r="33" fill="white"/>
</g>
<g clip-path="url(#clip5_1508_2)">
<circle cx="35" cy="35" r="33" transform="rotate(-180 35 35)" fill="black"/>
</g>
<defs>
<clipPath id="clip0_1508_2">
<rect width="66" height="33" fill="white" transform="translate(216 68) rotate(-180)"/>
</clipPath>
<clipPath id="clip1_1508_2">
<rect width="66" height="33" fill="white" transform="translate(150 2)"/>
</clipPath>
<clipPath id="clip2_1508_2">
<rect width="66" height="33" fill="white" transform="translate(142 68) rotate(-180)"/>
</clipPath>
<clipPath id="clip3_1508_2">
<rect width="66" height="33" fill="white" transform="translate(76 2)"/>
</clipPath>
<clipPath id="clip4_1508_2">
<rect width="66" height="33" fill="white" transform="translate(2 2)"/>
</clipPath>
<clipPath id="clip5_1508_2">
<rect width="66" height="33" fill="white" transform="translate(68 68) rotate(-180)"/>
</clipPath>
</defs>
</svg>
